<?xml version="1.0" encoding="UTF-8" standalone="no"?>
<!-- Created with Inkscape (http://www.inkscape.org/) -->

<svg
   xmlns:dc="http://purl.org/dc/elements/1.1/"
   xmlns:cc="http://creativecommons.org/ns#"
   xmlns:rdf="http://www.w3.org/1999/02/22-rdf-syntax-ns#"
   xmlns:svg="http://www.w3.org/2000/svg"
   xmlns="http://www.w3.org/2000/svg"
   xmlns:sodipodi="http://sodipodi.sourceforge.net/DTD/sodipodi-0.dtd"
   xmlns:inkscape="http://www.inkscape.org/namespaces/inkscape"
   width="11.613067"
   height="11.613067"
   id="svg2"
   version="1.1"
   inkscape:version="0.91 r"
   sodipodi:docname="icons.svg"
   inkscape:export-filename="/home/daniel/files/work/sts-workspace/ismop-web/src/main/resources/static/icons/device-fiber.png"
   inkscape:export-xdpi="90"
   inkscape:export-ydpi="90">
  <defs
     id="defs4" />
  <sodipodi:namedview
     id="base"
     pagecolor="#ffffff"
     bordercolor="#666666"
     borderopacity="1.0"
     inkscape:pageopacity="0.0"
     inkscape:pageshadow="2"
     inkscape:zoom="14.510414"
     inkscape:cx="0.51595239"
     inkscape:cy="3.2737572"
     inkscape:document-units="px"
     inkscape:current-layer="layer1"
     showgrid="false"
     inkscape:window-width="1920"
     inkscape:window-height="1028"
     inkscape:window-x="0"
     inkscape:window-y="0"
     inkscape:window-maximized="1"
     fit-margin-top="0"
     fit-margin-left="0"
     fit-margin-right="0"
     fit-margin-bottom="0" />
  <metadata
     id="metadata7">
    <rdf:RDF>
      <cc:Work
         rdf:about="">
        <dc:format>image/svg+xml</dc:format>
        <dc:type
           rdf:resource="http://purl.org/dc/dcmitype/StillImage" />
        <dc:title></dc:title>
      </cc:Work>
    </rdf:RDF>
  </metadata>
  <g
     inkscape:label="Layer 1"
     inkscape:groupmode="layer"
     id="layer1"
     transform="translate(-10.31753,-1039.0602)">
    <g
       id="g3840"
       style="fill:#f66d88;fill-opacity:1"
       transform="translate(49.604269,28.167768)">
      <path
         sodipodi:nodetypes="sccccsscccsscccssccccssssssccccccsscccscccsccccscccsccccsccccscccscccssccscccccccscscccscssssssscssssssscssssssscccccsscsssscssccccssccccsssscsscc"
         inkscape:connector-curvature="0"
         id="path3756"
         d="m 15.908873,1023.3622 c -0.480632,0.061 -0.878755,0.5156 -0.875,1 l 0,11.922 c 0.694071,-0.2544 1.358776,-0.1073 2,0.031 l 0,-1.4532 4.28125,0 c 0.264156,0 0.5,-0.2358 0.5,-0.5 0,-0.2642 -0.235844,-0.5037 -0.5,-0.5 l -4.28125,0 0,-3 4.28125,0 c 0.264156,0 0.5,-0.2358 0.5,-0.5 0,-0.2642 -0.235844,-0.5037 -0.5,-0.5 l -4.28125,0 0,-3 4.28125,0 c 0.264156,0 0.5,-0.2358 0.5,-0.5 0,-0.2642 -0.235844,-0.5037 -0.5,-0.5 l -4.28125,0 0,-1.5 c 0.0044,-0.568 -0.561468,-1.071 -1.125,-1 z m 0.0625,12.5313 c -1.415467,0 -2.5625,1.147 -2.5625,2.5625 0,1.4154 1.147033,2.5625 2.5625,2.5625 1.415467,0 2.5625,-1.1471 2.5625,-2.5625 0,-1.4155 -1.147033,-2.5625 -2.5625,-2.5625 z m -7.5312496,1.3437 c -0.4845566,0 -0.876989,0.243 -1.21875,0.5313 -0.341761,0.2884 -0.6527635,0.6501 -0.90625,1 -0.506973,0.6999 -0.84375,1.3751 -0.84375,1.375 -0.1248414,0.2374 -0.019524,0.5642 0.21875,0.6875 0.2382745,0.1232 0.5658561,0.02 0.6875,-0.2188 0,0 0.3021349,-0.6317 0.75,-1.25 0.2239326,-0.3091 0.4746394,-0.6065 0.71875,-0.8125 0.2441106,-0.206 0.4708203,-0.3125 0.59375,-0.3125 0.1229297,0 0.1977365,0.036 0.34375,0.2188 0.1460135,0.1822 0.3059763,0.483 0.46875,0.8125 0.1627737,0.3296 0.3437314,0.688 0.59375,1 0.2500186,0.3121 0.6404426,0.5937 1.1249996,0.5937 0.484557,0 0.874981,-0.2816 1.125,-0.5937 0.250019,-0.312 0.399726,-0.6704 0.5625,-1 0.126389,-0.2559 0.257215,-0.4771 0.375,-0.6563 -0.0028,-0.053 -0.03125,-0.1021 -0.03125,-0.1562 0,-0.4181 0.09498,-0.8257 0.25,-1.1875 -0.381978,0.07 -0.695734,0.2997 -0.90625,0.5625 -0.250019,0.312 -0.399726,0.6704 -0.5625,1 -0.162774,0.3295 -0.322736,0.6303 -0.46875,0.8125 -0.146014,0.1823 -0.22082,0.2187 -0.34375,0.2187 -0.12293,0 -0.197737,-0.036 -0.34375,-0.2187 -0.146013,-0.1822 -0.305976,-0.483 -0.46875,-0.8125 -0.1627736,-0.3296 -0.3437309,-0.688 -0.5937496,-1 -0.2500187,-0.3121 -0.6404434,-0.5938 -1.125,-0.5938 z m 15.0937496,0 c -0.484557,0 -0.874981,0.2817 -1.125,0.5938 -0.250019,0.312 -0.399726,0.6704 -0.5625,1 -0.162774,0.3295 -0.322736,0.6303 -0.46875,0.8125 -0.146014,0.1823 -0.22082,0.2187 -0.34375,0.2187 -0.12293,0 -0.197737,-0.036 -0.34375,-0.2187 -0.146013,-0.1822 -0.305976,-0.483 -0.46875,-0.8125 -0.162774,-0.3296 -0.343731,-0.688 -0.59375,-1 -0.221517,-0.2766 -0.558981,-0.5085 -0.96875,-0.5625 0.161611,0.3652 0.25,0.7644 0.25,1.1875 0,0.032 0.001,0.062 0,0.094 0.128969,0.1838 0.265977,0.4348 0.40625,0.7188 0.162774,0.3296 0.343731,0.688 0.59375,1 0.250019,0.3121 0.640443,0.5937 1.125,0.5937 0.484557,0 0.874981,-0.2816 1.125,-0.5937 0.250019,-0.312 0.399726,-0.6704 0.5625,-1 0.162774,-0.3295 0.322736,-0.6303 0.46875,-0.8125 0.146014,-0.1823 0.22082,-0.2188 0.34375,-0.2188 0.12293,0 0.349639,0.1065 0.59375,0.3125 0.244111,0.206 0.494817,0.5034 0.71875,0.8125 0.447865,0.6183 0.78125,1.25 0.78125,1.25 0.101954,0.2631 0.43876,0.3833 0.6875,0.25 0.248741,-0.1333 0.350068,-0.4881 0.1875,-0.7187 0,0 -0.336777,-0.6751 -0.84375,-1.375 -0.253486,-0.3499 -0.533239,-0.7116 -0.875,-1 -0.341761,-0.2883 -0.765444,-0.5313 -1.25,-0.5313 z m -15.0937496,2.7813 c -0.4845566,1e-4 -0.876989,0.2429 -1.21875,0.5312 -0.341761,0.2883 -0.6527635,0.6501 -0.90625,1 -0.506973,0.6998 -0.84375,1.375 -0.84375,1.375 -0.1227571,0.2373 -0.018524,0.5648 0.21875,0.6875 0.2372742,0.1227 0.564801,0.018 0.6875,-0.2187 0,0 0.3021349,-0.6317 0.75,-1.25 0.2239326,-0.3091 0.4746394,-0.6066 0.71875,-0.8125 0.2441106,-0.206 0.4708203,-0.3125 0.59375,-0.3125 0.1229297,0 0.1977365,0.037 0.34375,0.2187 0.1460135,0.1822 0.3059763,0.483 0.46875,0.8125 0.1627737,0.3295 0.3437314,0.688 0.59375,1 0.2500186,0.312 0.6404426,0.625 1.1249996,0.625 0.484557,0 0.874981,-0.313 1.125,-0.625 0.250019,-0.312 0.399726,-0.6705 0.5625,-1 0.162774,-0.3295 0.322736,-0.6303 0.46875,-0.8125 0.146014,-0.1822 0.22082,-0.2187 0.34375,-0.2187 0.12293,0 0.197737,0.037 0.34375,0.2187 0.146013,0.1822 0.305976,0.483 0.46875,0.8125 0.162774,0.3295 0.343731,0.688 0.59375,1 0.250019,0.312 0.640444,0.625 1.125,0.625 0.484557,0 0.874981,-0.313 1.125,-0.625 0.250019,-0.312 0.399726,-0.6705 0.5625,-1 0.162774,-0.3295 0.322736,-0.6303 0.46875,-0.8125 0.146014,-0.1822 0.22082,-0.2187 0.34375,-0.2187 0.12293,0 0.197737,0.037 0.34375,0.2187 0.146013,0.1822 0.305976,0.483 0.46875,0.8125 0.162774,0.3295 0.343731,0.688 0.59375,1 0.250019,0.312 0.640443,0.625 1.125,0.625 0.484557,0 0.874981,-0.313 1.125,-0.625 0.250019,-0.312 0.399726,-0.6705 0.5625,-1 0.162774,-0.3295 0.322736,-0.6303 0.46875,-0.8125 0.146014,-0.1822 0.22082,-0.2187 0.34375,-0.2187 0.12293,0 0.349639,0.1065 0.59375,0.3125 0.244111,0.2059 0.494817,0.5034 0.71875,0.8125 0.447865,0.6183 0.78125,1.2501 0.78125,1.25 0.101954,0.2631 0.43876,0.3832 0.6875,0.25 0.248741,-0.1333 0.350068,-0.4881 0.1875,-0.7188 0,0 -0.336777,-0.6752 -0.84375,-1.375 -0.253486,-0.3499 -0.533239,-0.7117 -0.875,-1 -0.341761,-0.2883 -0.765444,-0.5311 -1.25,-0.5312 -0.484557,1e-4 -0.874981,0.2817 -1.125,0.5937 -0.250019,0.312 -0.399726,0.6705 -0.5625,1 -0.162774,0.3295 -0.322736,0.6303 -0.46875,0.8125 -0.146014,0.1822 -0.22082,0.25 -0.34375,0.25 -0.12293,0 -0.197737,-0.068 -0.34375,-0.25 -0.146013,-0.1822 -0.305976,-0.483 -0.46875,-0.8125 -0.162774,-0.3295 -0.343731,-0.688 -0.59375,-1 -0.250019,-0.312 -0.640444,-0.5936 -1.125,-0.5937 -0.01066,0 -0.02068,-3e-4 -0.03125,0 -0.335115,0.537 -0.843258,0.9507 -1.4375,1.1875 -0.07065,0.1404 -0.151606,0.2703 -0.21875,0.4062 -0.162774,0.3295 -0.322736,0.6303 -0.46875,0.8125 -0.146014,0.1822 -0.22082,0.25 -0.34375,0.25 -0.12293,0 -0.197737,-0.068 -0.34375,-0.25 -0.146013,-0.1822 -0.305976,-0.483 -0.46875,-0.8125 -0.06104,-0.1236 -0.118663,-0.2473 -0.1875,-0.375 -0.649347,-0.2215 -1.175368,-0.6433 -1.53125,-1.2187 -0.484557,1e-4 -0.874981,0.2817 -1.125,0.5937 -0.250019,0.312 -0.399726,0.6705 -0.5625,1 -0.162774,0.3295 -0.322736,0.6303 -0.46875,0.8125 -0.146014,0.1822 -0.22082,0.25 -0.34375,0.25 -0.12293,0 -0.197737,-0.068 -0.34375,-0.25 -0.146013,-0.1822 -0.305976,-0.483 -0.46875,-0.8125 -0.1627736,-0.3295 -0.3437309,-0.688 -0.5937496,-1 -0.2500187,-0.312 -0.6404434,-0.5936 -1.125,-0.5937 z"
         style="color:#000000;font-style:normal;font-variant:normal;font-weight:normal;font-stretch:normal;font-size:medium;line-height:normal;font-family:Sans;-inkscape-font-specification:Sans;text-indent:0;text-align:start;text-decoration:none;text-decoration-line:none;letter-spacing:normal;word-spacing:normal;text-transform:none;direction:ltr;block-progression:tb;writing-mode:lr-tb;baseline-shift:baseline;text-anchor:start;display:inline;overflow:visible;visibility:visible;fill:#f66d88;fill-opacity:1;stroke:none;stroke-width:1;marker:none;enable-background:accumulate" />
      <path
         sodipodi:nodetypes="cccc"
         inkscape:connector-curvature="0"
         id="path3835"
         d="m 10.459649,1046.7442 11.080702,0 -5.61802,5.618 z"
         style="fill:#f66d88;fill-opacity:1;stroke:none" />
    </g>
    <g
       id="g3774">
      <path
         style="color:#000000;font-style:normal;font-variant:normal;font-weight:normal;font-stretch:normal;font-size:medium;line-height:normal;font-family:Sans;-inkscape-font-specification:Sans;text-indent:0;text-align:start;text-decoration:none;text-decoration-line:none;letter-spacing:normal;word-spacing:normal;text-transform:none;direction:ltr;block-progression:tb;writing-mode:lr-tb;baseline-shift:baseline;text-anchor:start;display:inline;overflow:visible;visibility:visible;fill:#136eef;fill-opacity:1;stroke:none;stroke-width:1;marker:none;enable-background:accumulate"
         d="m -30.692215,1023.3622 c -0.480632,0.061 -0.878755,0.5156 -0.875,1 l 0,11.922 c 0.694071,-0.2544 1.358776,-0.1073 2,0.031 l 0,-1.4532 4.28125,0 c 0.264156,0 0.5,-0.2358 0.5,-0.5 0,-0.2642 -0.235844,-0.5037 -0.5,-0.5 l -4.28125,0 0,-3 4.28125,0 c 0.264156,0 0.5,-0.2358 0.5,-0.5 0,-0.2642 -0.235844,-0.5037 -0.5,-0.5 l -4.28125,0 0,-3 4.28125,0 c 0.264156,0 0.5,-0.2358 0.5,-0.5 0,-0.2642 -0.235844,-0.5037 -0.5,-0.5 l -4.28125,0 0,-1.5 c 0.0044,-0.568 -0.561468,-1.071 -1.125,-1 z m 0.0625,12.5313 c -1.415467,0 -2.5625,1.147 -2.5625,2.5625 0,1.4154 1.147033,2.5625 2.5625,2.5625 1.415467,0 2.5625,-1.1471 2.5625,-2.5625 0,-1.4155 -1.147033,-2.5625 -2.5625,-2.5625 z m -7.53125,1.3437 c -0.484556,0 -0.876989,0.243 -1.21875,0.5313 -0.341761,0.2884 -0.652763,0.6501 -0.90625,1 -0.506973,0.6999 -0.84375,1.3751 -0.84375,1.375 -0.124841,0.2374 -0.01952,0.5642 0.21875,0.6875 0.238275,0.1232 0.565857,0.02 0.6875,-0.2188 0,0 0.302135,-0.6317 0.75,-1.25 0.223933,-0.3091 0.47464,-0.6065 0.71875,-0.8125 0.244111,-0.206 0.470821,-0.3125 0.59375,-0.3125 0.12293,0 0.197737,0.036 0.34375,0.2188 0.146014,0.1822 0.305977,0.483 0.46875,0.8125 0.162774,0.3296 0.343732,0.688 0.59375,1 0.250019,0.3121 0.640443,0.5937 1.125,0.5937 0.484557,0 0.874981,-0.2816 1.125,-0.5937 0.250019,-0.312 0.399726,-0.6704 0.5625,-1 0.126389,-0.2559 0.257215,-0.4771 0.375,-0.6563 -0.0028,-0.053 -0.03125,-0.1021 -0.03125,-0.1562 0,-0.4181 0.09498,-0.8257 0.25,-1.1875 -0.381978,0.07 -0.695734,0.2997 -0.90625,0.5625 -0.250019,0.312 -0.399726,0.6704 -0.5625,1 -0.162774,0.3295 -0.322736,0.6303 -0.46875,0.8125 -0.146014,0.1823 -0.22082,0.2187 -0.34375,0.2187 -0.12293,0 -0.197737,-0.036 -0.34375,-0.2187 -0.146013,-0.1822 -0.305976,-0.483 -0.46875,-0.8125 -0.162774,-0.3296 -0.343731,-0.688 -0.59375,-1 -0.250018,-0.3121 -0.640443,-0.5938 -1.125,-0.5938 z m 15.09375,0 c -0.484557,0 -0.874981,0.2817 -1.125,0.5938 -0.250019,0.312 -0.399726,0.6704 -0.5625,1 -0.162774,0.3295 -0.322736,0.6303 -0.46875,0.8125 -0.146014,0.1823 -0.22082,0.2187 -0.34375,0.2187 -0.12293,0 -0.197737,-0.036 -0.34375,-0.2187 -0.146013,-0.1822 -0.305976,-0.483 -0.46875,-0.8125 -0.162774,-0.3296 -0.343731,-0.688 -0.59375,-1 -0.221517,-0.2766 -0.558981,-0.5085 -0.96875,-0.5625 0.161611,0.3652 0.25,0.7644 0.25,1.1875 0,0.032 0.001,0.062 0,0.094 0.128969,0.1838 0.265977,0.4348 0.40625,0.7188 0.162774,0.3296 0.343731,0.688 0.59375,1 0.250019,0.3121 0.640443,0.5937 1.125,0.5937 0.484557,0 0.874981,-0.2816 1.125,-0.5937 0.250019,-0.312 0.399726,-0.6704 0.5625,-1 0.162774,-0.3295 0.322736,-0.6303 0.46875,-0.8125 0.146014,-0.1823 0.22082,-0.2188 0.34375,-0.2188 0.12293,0 0.349639,0.1065 0.59375,0.3125 0.244111,0.206 0.494817,0.5034 0.71875,0.8125 0.447865,0.6183 0.78125,1.25 0.78125,1.25 0.101954,0.2631 0.43876,0.3833 0.6875,0.25 0.248741,-0.1333 0.350068,-0.4881 0.1875,-0.7187 0,0 -0.336777,-0.6751 -0.84375,-1.375 -0.253486,-0.3499 -0.533239,-0.7116 -0.875,-1 -0.341761,-0.2883 -0.765444,-0.5313 -1.25,-0.5313 z m -15.09375,2.7813 c -0.484556,1e-4 -0.876989,0.2429 -1.21875,0.5312 -0.341761,0.2883 -0.652763,0.6501 -0.90625,1 -0.506973,0.6998 -0.84375,1.375 -0.84375,1.375 -0.122757,0.2373 -0.01852,0.5648 0.21875,0.6875 0.237275,0.1227 0.564801,0.018 0.6875,-0.2187 0,0 0.302135,-0.6317 0.75,-1.25 0.223933,-0.3091 0.47464,-0.6066 0.71875,-0.8125 0.244111,-0.206 0.470821,-0.3125 0.59375,-0.3125 0.12293,0 0.197737,0.037 0.34375,0.2187 0.146014,0.1822 0.305977,0.483 0.46875,0.8125 0.162774,0.3295 0.343732,0.688 0.59375,1 0.250019,0.312 0.640443,0.625 1.125,0.625 0.484557,0 0.874981,-0.313 1.125,-0.625 0.250019,-0.312 0.399726,-0.6705 0.5625,-1 0.162774,-0.3295 0.322736,-0.6303 0.46875,-0.8125 0.146014,-0.1822 0.22082,-0.2187 0.34375,-0.2187 0.12293,0 0.197737,0.037 0.34375,0.2187 0.146013,0.1822 0.305976,0.483 0.46875,0.8125 0.162774,0.3295 0.343731,0.688 0.59375,1 0.250019,0.312 0.640444,0.625 1.125,0.625 0.484557,0 0.874981,-0.313 1.125,-0.625 0.250019,-0.312 0.399726,-0.6705 0.5625,-1 0.162774,-0.3295 0.322736,-0.6303 0.46875,-0.8125 0.146014,-0.1822 0.22082,-0.2187 0.34375,-0.2187 0.12293,0 0.197737,0.037 0.34375,0.2187 0.146013,0.1822 0.305976,0.483 0.46875,0.8125 0.162774,0.3295 0.343731,0.688 0.59375,1 0.250019,0.312 0.640443,0.625 1.125,0.625 0.484557,0 0.874981,-0.313 1.125,-0.625 0.250019,-0.312 0.399726,-0.6705 0.5625,-1 0.162774,-0.3295 0.322736,-0.6303 0.46875,-0.8125 0.146014,-0.1822 0.22082,-0.2187 0.34375,-0.2187 0.12293,0 0.349639,0.1065 0.59375,0.3125 0.244111,0.2059 0.494817,0.5034 0.71875,0.8125 0.447865,0.6183 0.78125,1.2501 0.78125,1.25 0.101954,0.2631 0.43876,0.3832 0.6875,0.25 0.248741,-0.1333 0.350068,-0.4881 0.1875,-0.7188 0,0 -0.336777,-0.6752 -0.84375,-1.375 -0.253486,-0.3499 -0.533239,-0.7117 -0.875,-1 -0.341761,-0.2883 -0.765444,-0.5311 -1.25,-0.5312 -0.484557,1e-4 -0.874981,0.2817 -1.125,0.5937 -0.250019,0.312 -0.399726,0.6705 -0.5625,1 -0.162774,0.3295 -0.322736,0.6303 -0.46875,0.8125 -0.146014,0.1822 -0.22082,0.25 -0.34375,0.25 -0.12293,0 -0.197737,-0.068 -0.34375,-0.25 -0.146013,-0.1822 -0.305976,-0.483 -0.46875,-0.8125 -0.162774,-0.3295 -0.343731,-0.688 -0.59375,-1 -0.250019,-0.312 -0.640444,-0.5936 -1.125,-0.5937 -0.01066,0 -0.02068,-3e-4 -0.03125,0 -0.335115,0.537 -0.843258,0.9507 -1.4375,1.1875 -0.07065,0.1404 -0.151606,0.2703 -0.21875,0.4062 -0.162774,0.3295 -0.322736,0.6303 -0.46875,0.8125 -0.146014,0.1822 -0.22082,0.25 -0.34375,0.25 -0.12293,0 -0.197737,-0.068 -0.34375,-0.25 -0.146013,-0.1822 -0.305976,-0.483 -0.46875,-0.8125 -0.06104,-0.1236 -0.118663,-0.2473 -0.1875,-0.375 -0.649347,-0.2215 -1.175368,-0.6433 -1.53125,-1.2187 -0.484557,1e-4 -0.874981,0.2817 -1.125,0.5937 -0.250019,0.312 -0.399726,0.6705 -0.5625,1 -0.162774,0.3295 -0.322736,0.6303 -0.46875,0.8125 -0.146014,0.1822 -0.22082,0.25 -0.34375,0.25 -0.12293,0 -0.197737,-0.068 -0.34375,-0.25 -0.146013,-0.1822 -0.305976,-0.483 -0.46875,-0.8125 -0.162774,-0.3295 -0.343731,-0.688 -0.59375,-1 -0.250018,-0.312 -0.640443,-0.5936 -1.125,-0.5937 z"
         id="path3846"
         inkscape:connector-curvature="0"
         sodipodi:nodetypes="sccccsscccsscccssccccssssssccccccsscccscccsccccscccsccccsccccscccscccssccscccccccscscccscssssssscssssssscssssssscccccsscsssscssccccssccccsssscsscc" />
      <path
         style="fill:#136eef;fill-opacity:1;stroke:none"
         d="m -36.141439,1046.7442 11.080702,0 -5.61802,5.618 z"
         id="path3848"
         inkscape:connector-curvature="0"
         sodipodi:nodetypes="cccc" />
    </g>
    <path
       style="color:#000000;display:inline;overflow:visible;visibility:visible;fill:#f25d45;fill-opacity:1;fill-rule:evenodd;stroke:#6f1608;stroke-width:1;stroke-linecap:round;stroke-linejoin:round;stroke-miterlimit:4;stroke-dasharray:none;stroke-opacity:1;marker:none;enable-background:accumulate"
       d="m -36.762786,1010.2335 c 0,4.0893 -7.250263,9.0938 -9.164881,22.2456 -1.914617,-13.2554 -9.164881,-18.1563 -9.164881,-22.2456 0,-4.0893 5.075547,-7.4044 9.164881,-7.4044 4.089334,0 9.164881,3.3151 9.164881,7.4044 z"
       id="path2988"
       inkscape:connector-curvature="0"
       sodipodi:nodetypes="scsss" />
    <path
       style="color:#000000;display:inline;overflow:visible;visibility:visible;fill:#ffffff;fill-opacity:1;fill-rule:evenodd;stroke:#6f1608;stroke-width:0.5;stroke-miterlimit:4;stroke-dasharray:none;stroke-opacity:1;marker:none;enable-background:accumulate"
       d="m -45.987141,1004.6468 a 1.0001,1.0001 0 0 0 -0.875,1 l 0,7.9375 c -1.175453,0.4074 -2,1.5297 -2,2.8438 0,1.6586 1.341389,3 3,3 1.658611,0 3,-1.3414 3,-3 0,-1.3004 -0.843646,-2.3948 -2,-2.8125 l 0,-3.8438 2.71875,0 a 1.0001,1.0001 0 1 0 0,-2 l -2.71875,0 0,-2.125 a 1.0001,1.0001 0 0 0 -1.125,-1 z"
       id="path3780"
       inkscape:connector-curvature="0" />
    <path
       sodipodi:nodetypes="scsss"
       inkscape:connector-curvature="0"
       id="path3803"
       d="m 64.931142,1005.8841 c 0,4.0893 -7.250263,9.0938 -9.164881,22.2456 -1.914617,-13.2554 -9.164881,-18.1563 -9.164881,-22.2456 0,-4.0893 5.075547,-7.40442 9.164881,-7.40442 4.089334,0 9.164881,3.31512 9.164881,7.40442 z"
       style="color:#000000;display:inline;overflow:visible;visibility:visible;fill:#136eef;fill-opacity:1;fill-rule:evenodd;stroke:#0b49a1;stroke-width:1;stroke-linecap:round;stroke-linejoin:round;stroke-miterlimit:4;stroke-dasharray:none;stroke-opacity:1;marker:none;enable-background:accumulate" />
    <path
       inkscape:connector-curvature="0"
       id="path3805"
       d="m 55.706787,1000.2974 a 1.0001,1.0001 0 0 0 -0.875,1 l 0,7.9375 c -1.175453,0.4074 -2,1.5297 -2,2.8438 0,1.6586 1.341389,3 3,3 1.658611,0 3,-1.3414 3,-3 0,-1.3004 -0.843646,-2.3948 -2,-2.8125 l 0,-3.8438 2.71875,0 a 1.0001,1.0001 0 1 0 0,-2 l -2.71875,0 0,-2.125 a 1.0001,1.0001 0 0 0 -1.125,-1 z"
       style="color:#000000;display:inline;overflow:visible;visibility:visible;fill:#ffffff;fill-opacity:1;fill-rule:evenodd;stroke:#0b49a1;stroke-width:0.5;stroke-miterlimit:4;stroke-dasharray:none;stroke-opacity:1;marker:none;enable-background:accumulate" />
    <path
       style="color:#000000;clip-rule:nonzero;display:inline;overflow:visible;visibility:visible;opacity:1;isolation:auto;mix-blend-mode:normal;color-interpolation:sRGB;color-interpolation-filters:linearRGB;solid-color:#000000;solid-opacity:1;fill:#f25d45;fill-opacity:1;fill-rule:evenodd;stroke:#6f1608;stroke-width:1;stroke-linecap:round;stroke-linejoin:round;stroke-miterlimit:4;stroke-dasharray:none;stroke-dashoffset:0;stroke-opacity:1;marker:none;color-rendering:auto;image-rendering:auto;shape-rendering:auto;text-rendering:auto;enable-background:accumulate"
       d="m -6.4127971,1008.541 c 0,4.0893 -7.2502629,9.0938 -9.1648809,22.2456 -1.914617,-13.2554 -9.164881,-18.1563 -9.164881,-22.2456 0,-4.0893 5.075547,-7.4044 9.164881,-7.4044 4.089334,0 9.1648809,3.3151 9.1648809,7.4044 z"
       id="path3348"
       inkscape:connector-curvature="0"
       sodipodi:nodetypes="scsss" />
    <g
       style="color:#000000;clip-rule:nonzero;display:inline;overflow:visible;visibility:visible;opacity:1;isolation:auto;mix-blend-mode:normal;color-interpolation:sRGB;color-interpolation-filters:linearRGB;solid-color:#000000;solid-opacity:1;fill:#ffffff;fill-opacity:1;fill-rule:evenodd;stroke:#6f1608;stroke-width:0.5;stroke-linecap:butt;stroke-linejoin:miter;stroke-miterlimit:4;stroke-dasharray:none;stroke-dashoffset:0;stroke-opacity:1;marker:none;color-rendering:auto;image-rendering:auto;shape-rendering:auto;text-rendering:auto;enable-background:accumulate"
       transform="translate(-31.888059,-28.400755)"
       id="g3350">
      <circle
         style="color:#000000;clip-rule:nonzero;display:inline;overflow:visible;visibility:visible;opacity:1;isolation:auto;mix-blend-mode:normal;color-interpolation:sRGB;color-interpolation-filters:linearRGB;solid-color:#000000;solid-opacity:1;fill:#ffffff;fill-opacity:1;fill-rule:evenodd;stroke:#6f1608;stroke-width:0.5;stroke-linecap:butt;stroke-linejoin:miter;stroke-miterlimit:4;stroke-dasharray:none;stroke-dashoffset:0;stroke-opacity:1;marker:none;color-rendering:auto;image-rendering:auto;shape-rendering:auto;text-rendering:auto;enable-background:accumulate"
         id="circle3352"
         cx="11.702051"
         cy="1036.3622"
         r="1.6569276" />
      <circle
         r="1.6569276"
         cy="1036.3622"
         cx="16.310381"
         id="circle3354"
         style="color:#000000;clip-rule:nonzero;display:inline;overflow:visible;visibility:visible;opacity:1;isolation:auto;mix-blend-mode:normal;color-interpolation:sRGB;color-interpolation-filters:linearRGB;solid-color:#000000;solid-opacity:1;fill:#ffffff;fill-opacity:1;fill-rule:evenodd;stroke:#6f1608;stroke-width:0.5;stroke-linecap:butt;stroke-linejoin:miter;stroke-miterlimit:4;stroke-dasharray:none;stroke-dashoffset:0;stroke-opacity:1;marker:none;color-rendering:auto;image-rendering:auto;shape-rendering:auto;text-rendering:auto;enable-background:accumulate" />
      <circle
         style="color:#000000;clip-rule:nonzero;display:inline;overflow:visible;visibility:visible;opacity:1;isolation:auto;mix-blend-mode:normal;color-interpolation:sRGB;color-interpolation-filters:linearRGB;solid-color:#000000;solid-opacity:1;fill:#ffffff;fill-opacity:1;fill-rule:evenodd;stroke:#6f1608;stroke-width:0.5;stroke-linecap:butt;stroke-linejoin:miter;stroke-miterlimit:4;stroke-dasharray:none;stroke-dashoffset:0;stroke-opacity:1;marker:none;color-rendering:auto;image-rendering:auto;shape-rendering:auto;text-rendering:auto;enable-background:accumulate"
         id="circle3356"
         cx="20.918711"
         cy="1036.3622"
         r="1.6569276" />
    </g>
    <g
       id="g4247">
      <circle
         r="5.3065333"
         cy="1044.8667"
         cx="16.124063"
         id="path4222"
         style="color:#000000;clip-rule:nonzero;display:inline;overflow:visible;visibility:visible;opacity:1;isolation:auto;mix-blend-mode:normal;color-interpolation:sRGB;color-interpolation-filters:linearRGB;solid-color:#000000;solid-opacity:1;fill:#f25d45;fill-opacity:1;fill-rule:evenodd;stroke:#6f1608;stroke-width:1;stroke-linecap:round;stroke-linejoin:round;stroke-miterlimit:4;stroke-dasharray:none;stroke-dashoffset:0;stroke-opacity:1;marker:none;color-rendering:auto;image-rendering:auto;shape-rendering:auto;text-rendering:auto;enable-background:accumulate" />
      <g
         transform="translate(0.12406349,0.98108756)"
         id="g4240">
        <g
           id="g4189"
           transform="matrix(0.70351582,0,0,0.69254734,4.743747,320.79709)">
          <ellipse
             ry="2.3670189"
             rx="2.3200264"
             cy="1043.3336"
             cx="14.368476"
             id="path4148"
             style="color:#000000;clip-rule:nonzero;display:inline;overflow:visible;visibility:visible;opacity:1;isolation:auto;mix-blend-mode:normal;color-interpolation:sRGB;color-interpolation-filters:linearRGB;solid-color:#000000;solid-opacity:1;fill:none;fill-opacity:1;fill-rule:evenodd;stroke:#6f1608;stroke-width:0.71632206;stroke-linecap:butt;stroke-linejoin:miter;stroke-miterlimit:4;stroke-dasharray:none;stroke-dashoffset:0;stroke-opacity:1;marker:none;color-rendering:auto;image-rendering:auto;shape-rendering:auto;text-rendering:auto;enable-background:accumulate" />
          <ellipse
             ry="2.3670189"
             rx="2.3200264"
             style="color:#000000;clip-rule:nonzero;display:inline;overflow:visible;visibility:visible;opacity:1;isolation:auto;mix-blend-mode:normal;color-interpolation:sRGB;color-interpolation-filters:linearRGB;solid-color:#000000;solid-opacity:1;fill:none;fill-opacity:1;fill-rule:evenodd;stroke:#6f1608;stroke-width:0.71632206;stroke-linecap:butt;stroke-linejoin:miter;stroke-miterlimit:4;stroke-dasharray:none;stroke-dashoffset:0;stroke-opacity:1;marker:none;color-rendering:auto;image-rendering:auto;shape-rendering:auto;text-rendering:auto;enable-background:accumulate"
             id="circle4164"
             cx="16"
             cy="1043.4728" />
          <ellipse
             ry="2.3670189"
             rx="2.3200264"
             cy="1043.4728"
             cx="17.631525"
             id="circle4166"
             style="color:#000000;clip-rule:nonzero;display:inline;overflow:visible;visibility:visible;opacity:1;isolation:auto;mix-blend-mode:normal;color-interpolation:sRGB;color-interpolation-filters:linearRGB;solid-color:#000000;solid-opacity:1;fill:none;fill-opacity:1;fill-rule:evenodd;stroke:#6f1608;stroke-width:0.71632206;stroke-linecap:butt;stroke-linejoin:miter;stroke-miterlimit:4;stroke-dasharray:none;stroke-dashoffset:0;stroke-opacity:1;marker:none;color-rendering:auto;image-rendering:auto;shape-rendering:auto;text-rendering:auto;enable-background:accumulate" />
        </g>
        <path
           style="color:#000000;clip-rule:nonzero;display:inline;overflow:visible;visibility:visible;opacity:1;isolation:auto;mix-blend-mode:normal;color-interpolation:sRGB;color-interpolation-filters:linearRGB;solid-color:#000000;solid-opacity:1;fill:none;fill-opacity:1;fill-rule:evenodd;stroke:#6f1608;stroke-width:0.5;stroke-linecap:butt;stroke-linejoin:miter;stroke-miterlimit:4;stroke-dasharray:none;stroke-dashoffset:0;stroke-opacity:1;marker:none;color-rendering:auto;image-rendering:auto;shape-rendering:auto;text-rendering:auto;enable-background:accumulate"
           d="m 11.825017,1045.0887 8.349966,0"
           id="path4170"
           inkscape:connector-curvature="0" />
      </g>
    </g>
  </g>
</svg>
