<?xml version="1.0" encoding="UTF-8" standalone="no"?>
<!-- Created with Inkscape (http://www.inkscape.org/) -->

<svg
   xmlns:dc="http://purl.org/dc/elements/1.1/"
   xmlns:cc="http://creativecommons.org/ns#"
   xmlns:rdf="http://www.w3.org/1999/02/22-rdf-syntax-ns#"
   xmlns:svg="http://www.w3.org/2000/svg"
   xmlns="http://www.w3.org/2000/svg"
   xmlns:sodipodi="http://sodipodi.sourceforge.net/DTD/sodipodi-0.dtd"
   xmlns:inkscape="http://www.inkscape.org/namespaces/inkscape"
   width="32"
   height="32"
   id="svg2"
   version="1.1"
   inkscape:version="0.48.4 r9939"
   sodipodi:docname="icons.svg"
   inkscape:export-filename="/home/daniel/files/work/sts-workspace/ismop-web/src/main/resources/static/icons/sensor-selected.png"
   inkscape:export-xdpi="90"
   inkscape:export-ydpi="90">
  <defs
     id="defs4" />
  <sodipodi:namedview
     id="base"
     pagecolor="#ffffff"
     bordercolor="#666666"
     borderopacity="1.0"
     inkscape:pageopacity="0.0"
     inkscape:pageshadow="2"
     inkscape:zoom="9.656427"
     inkscape:cx="21.218799"
     inkscape:cy="7.2644812"
     inkscape:document-units="px"
     inkscape:current-layer="layer1"
     showgrid="false"
     inkscape:window-width="1920"
     inkscape:window-height="1030"
     inkscape:window-x="0"
     inkscape:window-y="0"
     inkscape:window-maximized="1" />
  <metadata
     id="metadata7">
    <rdf:RDF>
      <cc:Work
         rdf:about="">
        <dc:format>image/svg+xml</dc:format>
        <dc:type
           rdf:resource="http://purl.org/dc/dcmitype/StillImage" />
        <dc:title></dc:title>
      </cc:Work>
    </rdf:RDF>
  </metadata>
  <g
     inkscape:label="Layer 1"
     inkscape:groupmode="layer"
     id="layer1"
     transform="translate(0,-1020.3622)">
    <g
       id="g3840"
       style="fill:#f66d88;fill-opacity:1">
      <path
         sodipodi:nodetypes="sccccsscccsscccssccccssssssccccccsscccscccsccccscccsccccsccccscccscccssccscccccccscscccscssssssscssssssscssssssscccccsscsssscssccccssccccsssscsscc"
         inkscape:connector-curvature="0"
         id="path3756"
         d="m 15.908873,1023.3622 c -0.480632,0.061 -0.878755,0.5156 -0.875,1 l 0,11.922 c 0.694071,-0.2544 1.358776,-0.1073 2,0.031 l 0,-1.4532 4.28125,0 c 0.264156,0 0.5,-0.2358 0.5,-0.5 0,-0.2642 -0.235844,-0.5037 -0.5,-0.5 l -4.28125,0 0,-3 4.28125,0 c 0.264156,0 0.5,-0.2358 0.5,-0.5 0,-0.2642 -0.235844,-0.5037 -0.5,-0.5 l -4.28125,0 0,-3 4.28125,0 c 0.264156,0 0.5,-0.2358 0.5,-0.5 0,-0.2642 -0.235844,-0.5037 -0.5,-0.5 l -4.28125,0 0,-1.5 c 0.0044,-0.568 -0.561468,-1.071 -1.125,-1 z m 0.0625,12.5313 c -1.415467,0 -2.5625,1.147 -2.5625,2.5625 0,1.4154 1.147033,2.5625 2.5625,2.5625 1.415467,0 2.5625,-1.1471 2.5625,-2.5625 0,-1.4155 -1.147033,-2.5625 -2.5625,-2.5625 z m -7.5312496,1.3437 c -0.4845566,0 -0.876989,0.243 -1.21875,0.5313 -0.341761,0.2884 -0.6527635,0.6501 -0.90625,1 -0.506973,0.6999 -0.84375,1.3751 -0.84375,1.375 -0.1248414,0.2374 -0.019524,0.5642 0.21875,0.6875 0.2382745,0.1232 0.5658561,0.02 0.6875,-0.2188 0,0 0.3021349,-0.6317 0.75,-1.25 0.2239326,-0.3091 0.4746394,-0.6065 0.71875,-0.8125 0.2441106,-0.206 0.4708203,-0.3125 0.59375,-0.3125 0.1229297,0 0.1977365,0.036 0.34375,0.2188 0.1460135,0.1822 0.3059763,0.483 0.46875,0.8125 0.1627737,0.3296 0.3437314,0.688 0.59375,1 0.2500186,0.3121 0.6404426,0.5937 1.1249996,0.5937 0.484557,0 0.874981,-0.2816 1.125,-0.5937 0.250019,-0.312 0.399726,-0.6704 0.5625,-1 0.126389,-0.2559 0.257215,-0.4771 0.375,-0.6563 -0.0028,-0.053 -0.03125,-0.1021 -0.03125,-0.1562 0,-0.4181 0.09498,-0.8257 0.25,-1.1875 -0.381978,0.07 -0.695734,0.2997 -0.90625,0.5625 -0.250019,0.312 -0.399726,0.6704 -0.5625,1 -0.162774,0.3295 -0.322736,0.6303 -0.46875,0.8125 -0.146014,0.1823 -0.22082,0.2187 -0.34375,0.2187 -0.12293,0 -0.197737,-0.036 -0.34375,-0.2187 -0.146013,-0.1822 -0.305976,-0.483 -0.46875,-0.8125 -0.1627736,-0.3296 -0.3437309,-0.688 -0.5937496,-1 -0.2500187,-0.3121 -0.6404434,-0.5938 -1.125,-0.5938 z m 15.0937496,0 c -0.484557,0 -0.874981,0.2817 -1.125,0.5938 -0.250019,0.312 -0.399726,0.6704 -0.5625,1 -0.162774,0.3295 -0.322736,0.6303 -0.46875,0.8125 -0.146014,0.1823 -0.22082,0.2187 -0.34375,0.2187 -0.12293,0 -0.197737,-0.036 -0.34375,-0.2187 -0.146013,-0.1822 -0.305976,-0.483 -0.46875,-0.8125 -0.162774,-0.3296 -0.343731,-0.688 -0.59375,-1 -0.221517,-0.2766 -0.558981,-0.5085 -0.96875,-0.5625 0.161611,0.3652 0.25,0.7644 0.25,1.1875 0,0.032 0.001,0.062 0,0.094 0.128969,0.1838 0.265977,0.4348 0.40625,0.7188 0.162774,0.3296 0.343731,0.688 0.59375,1 0.250019,0.3121 0.640443,0.5937 1.125,0.5937 0.484557,0 0.874981,-0.2816 1.125,-0.5937 0.250019,-0.312 0.399726,-0.6704 0.5625,-1 0.162774,-0.3295 0.322736,-0.6303 0.46875,-0.8125 0.146014,-0.1823 0.22082,-0.2188 0.34375,-0.2188 0.12293,0 0.349639,0.1065 0.59375,0.3125 0.244111,0.206 0.494817,0.5034 0.71875,0.8125 0.447865,0.6183 0.78125,1.25 0.78125,1.25 0.101954,0.2631 0.43876,0.3833 0.6875,0.25 0.248741,-0.1333 0.350068,-0.4881 0.1875,-0.7187 0,0 -0.336777,-0.6751 -0.84375,-1.375 -0.253486,-0.3499 -0.533239,-0.7116 -0.875,-1 -0.341761,-0.2883 -0.765444,-0.5313 -1.25,-0.5313 z m -15.0937496,2.7813 c -0.4845566,1e-4 -0.876989,0.2429 -1.21875,0.5312 -0.341761,0.2883 -0.6527635,0.6501 -0.90625,1 -0.506973,0.6998 -0.84375,1.375 -0.84375,1.375 -0.1227571,0.2373 -0.018524,0.5648 0.21875,0.6875 0.2372742,0.1227 0.564801,0.018 0.6875,-0.2187 0,0 0.3021349,-0.6317 0.75,-1.25 0.2239326,-0.3091 0.4746394,-0.6066 0.71875,-0.8125 0.2441106,-0.206 0.4708203,-0.3125 0.59375,-0.3125 0.1229297,0 0.1977365,0.037 0.34375,0.2187 0.1460135,0.1822 0.3059763,0.483 0.46875,0.8125 0.1627737,0.3295 0.3437314,0.688 0.59375,1 0.2500186,0.312 0.6404426,0.625 1.1249996,0.625 0.484557,0 0.874981,-0.313 1.125,-0.625 0.250019,-0.312 0.399726,-0.6705 0.5625,-1 0.162774,-0.3295 0.322736,-0.6303 0.46875,-0.8125 0.146014,-0.1822 0.22082,-0.2187 0.34375,-0.2187 0.12293,0 0.197737,0.037 0.34375,0.2187 0.146013,0.1822 0.305976,0.483 0.46875,0.8125 0.162774,0.3295 0.343731,0.688 0.59375,1 0.250019,0.312 0.640444,0.625 1.125,0.625 0.484557,0 0.874981,-0.313 1.125,-0.625 0.250019,-0.312 0.399726,-0.6705 0.5625,-1 0.162774,-0.3295 0.322736,-0.6303 0.46875,-0.8125 0.146014,-0.1822 0.22082,-0.2187 0.34375,-0.2187 0.12293,0 0.197737,0.037 0.34375,0.2187 0.146013,0.1822 0.305976,0.483 0.46875,0.8125 0.162774,0.3295 0.343731,0.688 0.59375,1 0.250019,0.312 0.640443,0.625 1.125,0.625 0.484557,0 0.874981,-0.313 1.125,-0.625 0.250019,-0.312 0.399726,-0.6705 0.5625,-1 0.162774,-0.3295 0.322736,-0.6303 0.46875,-0.8125 0.146014,-0.1822 0.22082,-0.2187 0.34375,-0.2187 0.12293,0 0.349639,0.1065 0.59375,0.3125 0.244111,0.2059 0.494817,0.5034 0.71875,0.8125 0.447865,0.6183 0.78125,1.2501 0.78125,1.25 0.101954,0.2631 0.43876,0.3832 0.6875,0.25 0.248741,-0.1333 0.350068,-0.4881 0.1875,-0.7188 0,0 -0.336777,-0.6752 -0.84375,-1.375 -0.253486,-0.3499 -0.533239,-0.7117 -0.875,-1 -0.341761,-0.2883 -0.765444,-0.5311 -1.25,-0.5312 -0.484557,1e-4 -0.874981,0.2817 -1.125,0.5937 -0.250019,0.312 -0.399726,0.6705 -0.5625,1 -0.162774,0.3295 -0.322736,0.6303 -0.46875,0.8125 -0.146014,0.1822 -0.22082,0.25 -0.34375,0.25 -0.12293,0 -0.197737,-0.068 -0.34375,-0.25 -0.146013,-0.1822 -0.305976,-0.483 -0.46875,-0.8125 -0.162774,-0.3295 -0.343731,-0.688 -0.59375,-1 -0.250019,-0.312 -0.640444,-0.5936 -1.125,-0.5937 -0.01066,0 -0.02068,-3e-4 -0.03125,0 -0.335115,0.537 -0.843258,0.9507 -1.4375,1.1875 -0.07065,0.1404 -0.151606,0.2703 -0.21875,0.4062 -0.162774,0.3295 -0.322736,0.6303 -0.46875,0.8125 -0.146014,0.1822 -0.22082,0.25 -0.34375,0.25 -0.12293,0 -0.197737,-0.068 -0.34375,-0.25 -0.146013,-0.1822 -0.305976,-0.483 -0.46875,-0.8125 -0.06104,-0.1236 -0.118663,-0.2473 -0.1875,-0.375 -0.649347,-0.2215 -1.175368,-0.6433 -1.53125,-1.2187 -0.484557,1e-4 -0.874981,0.2817 -1.125,0.5937 -0.250019,0.312 -0.399726,0.6705 -0.5625,1 -0.162774,0.3295 -0.322736,0.6303 -0.46875,0.8125 -0.146014,0.1822 -0.22082,0.25 -0.34375,0.25 -0.12293,0 -0.197737,-0.068 -0.34375,-0.25 -0.146013,-0.1822 -0.305976,-0.483 -0.46875,-0.8125 -0.1627736,-0.3295 -0.3437309,-0.688 -0.5937496,-1 -0.2500187,-0.312 -0.6404434,-0.5936 -1.125,-0.5937 z"
         style="font-size:medium;font-style:normal;font-variant:normal;font-weight:normal;font-stretch:normal;text-indent:0;text-align:start;text-decoration:none;line-height:normal;letter-spacing:normal;word-spacing:normal;text-transform:none;direction:ltr;block-progression:tb;writing-mode:lr-tb;text-anchor:start;baseline-shift:baseline;color:#000000;fill:#f66d88;fill-opacity:1;stroke:none;stroke-width:1;marker:none;visibility:visible;display:inline;overflow:visible;enable-background:accumulate;font-family:Sans;-inkscape-font-specification:Sans" />
      <path
         sodipodi:nodetypes="cccc"
         inkscape:connector-curvature="0"
         id="path3835"
         d="m 10.459649,1046.7442 11.080702,0 -5.61802,5.618 z"
         style="fill:#f66d88;fill-opacity:1;stroke:none" />
    </g>
    <g
       style="fill:#136eef;fill-opacity:1"
       id="g3844"
       transform="translate(-46.601088,0)">
      <path
         style="font-size:medium;font-style:normal;font-variant:normal;font-weight:normal;font-stretch:normal;text-indent:0;text-align:start;text-decoration:none;line-height:normal;letter-spacing:normal;word-spacing:normal;text-transform:none;direction:ltr;block-progression:tb;writing-mode:lr-tb;text-anchor:start;baseline-shift:baseline;color:#000000;fill:#136eef;fill-opacity:1;stroke:none;stroke-width:1;marker:none;visibility:visible;display:inline;overflow:visible;enable-background:accumulate;font-family:Sans;-inkscape-font-specification:Sans"
         d="m 15.908873,1023.3622 c -0.480632,0.061 -0.878755,0.5156 -0.875,1 l 0,11.922 c 0.694071,-0.2544 1.358776,-0.1073 2,0.031 l 0,-1.4532 4.28125,0 c 0.264156,0 0.5,-0.2358 0.5,-0.5 0,-0.2642 -0.235844,-0.5037 -0.5,-0.5 l -4.28125,0 0,-3 4.28125,0 c 0.264156,0 0.5,-0.2358 0.5,-0.5 0,-0.2642 -0.235844,-0.5037 -0.5,-0.5 l -4.28125,0 0,-3 4.28125,0 c 0.264156,0 0.5,-0.2358 0.5,-0.5 0,-0.2642 -0.235844,-0.5037 -0.5,-0.5 l -4.28125,0 0,-1.5 c 0.0044,-0.568 -0.561468,-1.071 -1.125,-1 z m 0.0625,12.5313 c -1.415467,0 -2.5625,1.147 -2.5625,2.5625 0,1.4154 1.147033,2.5625 2.5625,2.5625 1.415467,0 2.5625,-1.1471 2.5625,-2.5625 0,-1.4155 -1.147033,-2.5625 -2.5625,-2.5625 z m -7.5312496,1.3437 c -0.4845566,0 -0.876989,0.243 -1.21875,0.5313 -0.341761,0.2884 -0.6527635,0.6501 -0.90625,1 -0.506973,0.6999 -0.84375,1.3751 -0.84375,1.375 -0.1248414,0.2374 -0.019524,0.5642 0.21875,0.6875 0.2382745,0.1232 0.5658561,0.02 0.6875,-0.2188 0,0 0.3021349,-0.6317 0.75,-1.25 0.2239326,-0.3091 0.4746394,-0.6065 0.71875,-0.8125 0.2441106,-0.206 0.4708203,-0.3125 0.59375,-0.3125 0.1229297,0 0.1977365,0.036 0.34375,0.2188 0.1460135,0.1822 0.3059763,0.483 0.46875,0.8125 0.1627737,0.3296 0.3437314,0.688 0.59375,1 0.2500186,0.3121 0.6404426,0.5937 1.1249996,0.5937 0.484557,0 0.874981,-0.2816 1.125,-0.5937 0.250019,-0.312 0.399726,-0.6704 0.5625,-1 0.126389,-0.2559 0.257215,-0.4771 0.375,-0.6563 -0.0028,-0.053 -0.03125,-0.1021 -0.03125,-0.1562 0,-0.4181 0.09498,-0.8257 0.25,-1.1875 -0.381978,0.07 -0.695734,0.2997 -0.90625,0.5625 -0.250019,0.312 -0.399726,0.6704 -0.5625,1 -0.162774,0.3295 -0.322736,0.6303 -0.46875,0.8125 -0.146014,0.1823 -0.22082,0.2187 -0.34375,0.2187 -0.12293,0 -0.197737,-0.036 -0.34375,-0.2187 -0.146013,-0.1822 -0.305976,-0.483 -0.46875,-0.8125 -0.1627736,-0.3296 -0.3437309,-0.688 -0.5937496,-1 -0.2500187,-0.3121 -0.6404434,-0.5938 -1.125,-0.5938 z m 15.0937496,0 c -0.484557,0 -0.874981,0.2817 -1.125,0.5938 -0.250019,0.312 -0.399726,0.6704 -0.5625,1 -0.162774,0.3295 -0.322736,0.6303 -0.46875,0.8125 -0.146014,0.1823 -0.22082,0.2187 -0.34375,0.2187 -0.12293,0 -0.197737,-0.036 -0.34375,-0.2187 -0.146013,-0.1822 -0.305976,-0.483 -0.46875,-0.8125 -0.162774,-0.3296 -0.343731,-0.688 -0.59375,-1 -0.221517,-0.2766 -0.558981,-0.5085 -0.96875,-0.5625 0.161611,0.3652 0.25,0.7644 0.25,1.1875 0,0.032 0.001,0.062 0,0.094 0.128969,0.1838 0.265977,0.4348 0.40625,0.7188 0.162774,0.3296 0.343731,0.688 0.59375,1 0.250019,0.3121 0.640443,0.5937 1.125,0.5937 0.484557,0 0.874981,-0.2816 1.125,-0.5937 0.250019,-0.312 0.399726,-0.6704 0.5625,-1 0.162774,-0.3295 0.322736,-0.6303 0.46875,-0.8125 0.146014,-0.1823 0.22082,-0.2188 0.34375,-0.2188 0.12293,0 0.349639,0.1065 0.59375,0.3125 0.244111,0.206 0.494817,0.5034 0.71875,0.8125 0.447865,0.6183 0.78125,1.25 0.78125,1.25 0.101954,0.2631 0.43876,0.3833 0.6875,0.25 0.248741,-0.1333 0.350068,-0.4881 0.1875,-0.7187 0,0 -0.336777,-0.6751 -0.84375,-1.375 -0.253486,-0.3499 -0.533239,-0.7116 -0.875,-1 -0.341761,-0.2883 -0.765444,-0.5313 -1.25,-0.5313 z m -15.0937496,2.7813 c -0.4845566,1e-4 -0.876989,0.2429 -1.21875,0.5312 -0.341761,0.2883 -0.6527635,0.6501 -0.90625,1 -0.506973,0.6998 -0.84375,1.375 -0.84375,1.375 -0.1227571,0.2373 -0.018524,0.5648 0.21875,0.6875 0.2372742,0.1227 0.564801,0.018 0.6875,-0.2187 0,0 0.3021349,-0.6317 0.75,-1.25 0.2239326,-0.3091 0.4746394,-0.6066 0.71875,-0.8125 0.2441106,-0.206 0.4708203,-0.3125 0.59375,-0.3125 0.1229297,0 0.1977365,0.037 0.34375,0.2187 0.1460135,0.1822 0.3059763,0.483 0.46875,0.8125 0.1627737,0.3295 0.3437314,0.688 0.59375,1 0.2500186,0.312 0.6404426,0.625 1.1249996,0.625 0.484557,0 0.874981,-0.313 1.125,-0.625 0.250019,-0.312 0.399726,-0.6705 0.5625,-1 0.162774,-0.3295 0.322736,-0.6303 0.46875,-0.8125 0.146014,-0.1822 0.22082,-0.2187 0.34375,-0.2187 0.12293,0 0.197737,0.037 0.34375,0.2187 0.146013,0.1822 0.305976,0.483 0.46875,0.8125 0.162774,0.3295 0.343731,0.688 0.59375,1 0.250019,0.312 0.640444,0.625 1.125,0.625 0.484557,0 0.874981,-0.313 1.125,-0.625 0.250019,-0.312 0.399726,-0.6705 0.5625,-1 0.162774,-0.3295 0.322736,-0.6303 0.46875,-0.8125 0.146014,-0.1822 0.22082,-0.2187 0.34375,-0.2187 0.12293,0 0.197737,0.037 0.34375,0.2187 0.146013,0.1822 0.305976,0.483 0.46875,0.8125 0.162774,0.3295 0.343731,0.688 0.59375,1 0.250019,0.312 0.640443,0.625 1.125,0.625 0.484557,0 0.874981,-0.313 1.125,-0.625 0.250019,-0.312 0.399726,-0.6705 0.5625,-1 0.162774,-0.3295 0.322736,-0.6303 0.46875,-0.8125 0.146014,-0.1822 0.22082,-0.2187 0.34375,-0.2187 0.12293,0 0.349639,0.1065 0.59375,0.3125 0.244111,0.2059 0.494817,0.5034 0.71875,0.8125 0.447865,0.6183 0.78125,1.2501 0.78125,1.25 0.101954,0.2631 0.43876,0.3832 0.6875,0.25 0.248741,-0.1333 0.350068,-0.4881 0.1875,-0.7188 0,0 -0.336777,-0.6752 -0.84375,-1.375 -0.253486,-0.3499 -0.533239,-0.7117 -0.875,-1 -0.341761,-0.2883 -0.765444,-0.5311 -1.25,-0.5312 -0.484557,1e-4 -0.874981,0.2817 -1.125,0.5937 -0.250019,0.312 -0.399726,0.6705 -0.5625,1 -0.162774,0.3295 -0.322736,0.6303 -0.46875,0.8125 -0.146014,0.1822 -0.22082,0.25 -0.34375,0.25 -0.12293,0 -0.197737,-0.068 -0.34375,-0.25 -0.146013,-0.1822 -0.305976,-0.483 -0.46875,-0.8125 -0.162774,-0.3295 -0.343731,-0.688 -0.59375,-1 -0.250019,-0.312 -0.640444,-0.5936 -1.125,-0.5937 -0.01066,0 -0.02068,-3e-4 -0.03125,0 -0.335115,0.537 -0.843258,0.9507 -1.4375,1.1875 -0.07065,0.1404 -0.151606,0.2703 -0.21875,0.4062 -0.162774,0.3295 -0.322736,0.6303 -0.46875,0.8125 -0.146014,0.1822 -0.22082,0.25 -0.34375,0.25 -0.12293,0 -0.197737,-0.068 -0.34375,-0.25 -0.146013,-0.1822 -0.305976,-0.483 -0.46875,-0.8125 -0.06104,-0.1236 -0.118663,-0.2473 -0.1875,-0.375 -0.649347,-0.2215 -1.175368,-0.6433 -1.53125,-1.2187 -0.484557,1e-4 -0.874981,0.2817 -1.125,0.5937 -0.250019,0.312 -0.399726,0.6705 -0.5625,1 -0.162774,0.3295 -0.322736,0.6303 -0.46875,0.8125 -0.146014,0.1822 -0.22082,0.25 -0.34375,0.25 -0.12293,0 -0.197737,-0.068 -0.34375,-0.25 -0.146013,-0.1822 -0.305976,-0.483 -0.46875,-0.8125 -0.1627736,-0.3295 -0.3437309,-0.688 -0.5937496,-1 -0.2500187,-0.312 -0.6404434,-0.5936 -1.125,-0.5937 z"
         id="path3846"
         inkscape:connector-curvature="0"
         sodipodi:nodetypes="sccccsscccsscccssccccssssssccccccsscccscccsccccscccsccccsccccscccscccssccscccccccscscccscssssssscssssssscssssssscccccsscsssscssccccssccccsssscsscc" />
      <path
         style="fill:#136eef;fill-opacity:1;stroke:none"
         d="m 10.459649,1046.7442 11.080702,0 -5.61802,5.618 z"
         id="path3848"
         inkscape:connector-curvature="0"
         sodipodi:nodetypes="cccc" />
    </g>
  </g>
</svg>
